<svg width="14" height="10" viewBox="0 0 14 10" fill="none"
	xmlns="http://www.w3.org/2000/svg">
	<path fill-rule="evenodd" clip-rule="evenodd" d="M10.9366 4.59082H13.9996V9.47482C13.4996 9.66482 13.0176 9.79982 12.5566 9.88082C12.0956 9.95982 11.5976 9.99982 11.0626 9.99982C9.80156 9.99982 8.83056 9.56482 8.14756 8.69282C7.46356 7.82082 7.12256 6.59082 7.12256 5.00382C7.12256 3.43782 7.50756 2.21282 8.27856 1.32682C9.04856 0.442817 10.1096 -0.000183105 11.4606 -0.000183105C12.3306 -0.000183105 13.1536 0.194817 13.9316 0.585817L13.4536 1.90982C12.7776 1.54582 12.1026 1.36382 11.4266 1.36382C10.5386 1.36382 9.83556 1.68982 9.32056 2.34182C8.80356 2.99382 8.54556 3.88582 8.54556 5.01682C8.54556 6.20582 8.77856 7.10882 9.24356 7.72782C9.70756 8.34682 10.3766 8.65582 11.2496 8.65582C11.6906 8.65582 12.1616 8.59182 12.6626 8.46282V5.95482H10.9366V4.59082Z" fill="white"/>
	<path fill-rule="evenodd" clip-rule="evenodd" d="M3.80276 6.44734V4.00534C3.80276 3.13534 3.82276 2.42434 3.86076 1.86934H3.81476C3.70776 2.16234 3.54076 2.51734 3.31376 2.93434L1.24676 6.44734H3.80276ZM6.22876 7.74434H5.10776V9.86634H3.80276V7.74434H-0.000244141V6.54034L3.80276 0.113342H5.10776V6.44734H6.22876V7.74434Z" fill="white"/>
</svg>
