<svg width="15" height="10" viewBox="0 0 15 10" fill="none"
	xmlns="http://www.w3.org/2000/svg">
	<path fill-rule="evenodd" clip-rule="evenodd" d="M0 0.5C0 0.223858 0.223857 0 0.5 0H13.5C13.7761 0 14 0.223858 14 0.5V2C14.5523 2 15 2.44771 15 3V5.53111V7C15 7.55228 14.5523 8 14 8V9.5C14 9.77614 13.7761 10 13.5 10H0.5C0.223858 10 0 9.77614 0 9.5V0.5ZM1.5 1C1.22386 1 1 1.22386 1 1.5V8.5C1 8.77614 1.22386 9 1.5 9H12.5C12.7761 9 13 8.77614 13 8.5V1.5C13 1.22386 12.7761 1 12.5 1H1.5ZM2 2.5C2 2.22386 2.22386 2 2.5 2H11.5C11.7761 2 12 2.22386 12 2.5V7.5C12 7.77614 11.7761 8 11.5 8H2.5C2.22386 8 2 7.77614 2 7.5V2.5Z" fill="white"/>
</svg>
